<svg width="157" height="74" viewBox="0 0 157 74" fill="none" xmlns="http://www.w3.org/2000/svg">
<g filter="url(#filter0_d_6_2)">
<path d="M4.21056 62V28.4H10.6426L30.4666 52.592H27.3466V28.4H35.0266V62H28.6426L8.77056 37.808H11.8906V62H4.21056ZM53.3442 62.384C51.2002 62.384 49.2802 61.968 47.5842 61.136C45.9202 60.304 44.6242 59.04 43.6962 57.344C42.7682 55.616 42.3042 53.424 42.3042 50.768V36.176H49.7922V49.664C49.7922 51.808 50.2402 53.392 51.1362 54.416C52.0642 55.408 53.3602 55.904 55.0242 55.904C56.1762 55.904 57.2002 55.664 58.0962 55.184C58.9922 54.672 59.6962 53.904 60.2082 52.88C60.7202 51.824 60.9762 50.512 60.9762 48.944V36.176H68.4642V62H61.3602V54.896L62.6562 56.96C61.7922 58.752 60.5122 60.112 58.8162 61.04C57.1522 61.936 55.3282 62.384 53.3442 62.384ZM85.9613 62.384C82.9213 62.384 80.5533 61.616 78.8573 60.08C77.1613 58.512 76.3133 56.192 76.3133 53.12V30.464H83.8013V53.024C83.8013 54.112 84.0893 54.96 84.6653 55.568C85.2413 56.144 86.0253 56.432 87.0173 56.432C88.2013 56.432 89.2093 56.112 90.0413 55.472L92.0573 60.752C91.2893 61.296 90.3613 61.712 89.2733 62C88.2173 62.256 87.1133 62.384 85.9613 62.384ZM72.3293 42.512V36.752H90.2333V42.512H72.3293ZM96.2607 62V36.176H103.413V43.472L102.405 41.36C103.173 39.536 104.405 38.16 106.101 37.232C107.797 36.272 109.861 35.792 112.293 35.792V42.704C111.973 42.672 111.685 42.656 111.429 42.656C111.173 42.624 110.901 42.608 110.613 42.608C108.565 42.608 106.901 43.2 105.621 44.384C104.373 45.536 103.749 47.344 103.749 49.808V62H96.2607ZM116.792 62V36.176H124.28V62H116.792ZM120.536 32.576C119.16 32.576 118.04 32.176 117.176 31.376C116.312 30.576 115.88 29.584 115.88 28.4C115.88 27.216 116.312 26.224 117.176 25.424C118.04 24.624 119.16 24.224 120.536 24.224C121.912 24.224 123.032 24.608 123.896 25.376C124.76 26.112 125.192 27.072 125.192 28.256C125.192 29.504 124.76 30.544 123.896 31.376C123.064 32.176 121.944 32.576 120.536 32.576Z" fill="black"/>
<path d="M136.46 30.716V14.084H141.104V30.716H136.46ZM130.232 24.596V20.204H147.368V24.596H130.232Z" fill="#01FFA9"/>
</g>
<defs>
<filter id="filter0_d_6_2" x="0" y="0" width="159" height="82" filterUnits="userSpaceOnUse" color-interpolation-filters="sRGB">
<feFlood flood-opacity="0" result="BackgroundImageFix"/>
<feColorMatrix in="SourceAlpha" type="matrix" values="0 0 0 0 0 0 0 0 0 0 0 0 0 0 0 0 0 0 127 0" result="hardAlpha"/>
<feOffset dx="5" dy="4"/>
<feGaussianBlur stdDeviation="2"/>
<feComposite in2="hardAlpha" operator="out"/>
<feColorMatrix type="matrix" values="0 0 0 0 0 0 0 0 0 0 0 0 0 0 0 0 0 0 0.25 0"/>
<feBlend mode="normal" in2="BackgroundImageFix" result="effect1_dropShadow_6_2"/>
<feBlend mode="normal" in="SourceGraphic" in2="effect1_dropShadow_6_2" result="shape"/>
</filter>
</defs>
</svg>
